<svg xmlns="http://www.w3.org/2000/svg" viewBox="0 0 64 64" width="64" height="64">
  <defs>
    <linearGradient id="gold" x1="0" y1="0" x2="1" y2="1">
      <stop offset="0" stop-color="#f2ca50"/>
      <stop offset="1" stop-color="#d4af37"/>
    </linearGradient>
  </defs>
  <rect width="64" height="64" rx="16" fill="#131313"/>
  <rect x="1.5" y="1.5" width="61" height="61" rx="14.5" fill="none" stroke="url(#gold)" stroke-opacity="0.45" stroke-width="1.5"/>
  <path transform="translate(20 16) scale(1)" fill="url(#gold)"
    d="M12 0C8.5 0 7 2 5.5 2 4 2 3 1 2.6 2.2 2 4 3 7 3.8 10.5 4.3 12.7 4.3 15 5.2 17.5 5.7 19 6.3 20 7.2 20 8.3 20 8.6 18 9.2 15.7 9.6 14 10.7 13 12 13c1.3 0 2.4 1 2.8 2.7.6 2.3 1.2 4.3 2.3 4.3.9 0 1.5-1 2-2.5C20 15.3 20 13 20.5 10.8 21.3 7.3 22.3 4 21.7 2.2 21.3 1 20.3 2 18.8 2 17.3 2 15.5 0 12 0Z"/>
</svg>
