<svg xmlns="http://www.w3.org/2000/svg" viewBox="0 0 560 160" width="560" height="160">
  <defs>
    <linearGradient id="gold" x1="0" y1="0" x2="1" y2="1">
      <stop offset="0" stop-color="#f2ca50"/>
      <stop offset="1" stop-color="#d4af37"/>
    </linearGradient>
  </defs>
  <rect width="560" height="160" fill="#131313"/>
  <g transform="translate(40 36)">
    <rect width="88" height="88" rx="22" fill="#1a1a1a"/>
    <rect x="1.5" y="1.5" width="85" height="85" rx="20.5" fill="none" stroke="url(#gold)" stroke-opacity="0.5" stroke-width="1.5"/>
    <path transform="translate(28 22) scale(1.35)" fill="url(#gold)"
      d="M12 0C8.5 0 7 2 5.5 2 4 2 3 1 2.6 2.2 2 4 3 7 3.8 10.5 4.3 12.7 4.3 15 5.2 17.5 5.7 19 6.3 20 7.2 20 8.3 20 8.6 18 9.2 15.7 9.6 14 10.7 13 12 13c1.3 0 2.4 1 2.8 2.7.6 2.3 1.2 4.3 2.3 4.3.9 0 1.5-1 2-2.5C20 15.3 20 13 20.5 10.8 21.3 7.3 22.3 4 21.7 2.2 21.3 1 20.3 2 18.8 2 17.3 2 15.5 0 12 0Z"/>
  </g>
  <text x="160" y="74" font-family="'EB Garamond', Georgia, serif" font-size="46" fill="url(#gold)" font-weight="600" letter-spacing="0.5">Ömer Riyadoğlu</text>
  <text x="162" y="104" font-family="'Plus Jakarta Sans', Arial, sans-serif" font-size="16" fill="#d0c5af" letter-spacing="6" font-weight="600">DİŞ HEKİMİ · DENTAL CLINIC</text>
</svg>
